<svg width="14" height="14" viewBox="0 0 14 14" fill="none" xmlns="http://www.w3.org/2000/svg">
<path d="M1.5 2C1.23478 2 0.98043 2.10536 0.792893 2.29289C0.605357 2.48043 0.5 2.73478 0.5 3V12.5C0.5 12.7652 0.605357 13.0196 0.792893 13.2071C0.98043 13.3946 1.23478 13.5 1.5 13.5H12.5C12.7652 13.5 13.0196 13.3946 13.2071 13.2071C13.3946 13.0196 13.5 12.7652 13.5 12.5V3C13.5 2.73478 13.3946 2.48043 13.2071 2.29289C13.0196 2.10536 12.7652 2 12.5 2H10.5M3.5 0.5V3.5M10.5 0.5V3.5M3.5 2H8.5" stroke="black" stroke-linecap="round" stroke-linejoin="round"/>
<path d="M6.18803 4.56201C6.05542 4.56201 5.92824 4.61469 5.83448 4.70846C5.74071 4.80223 5.68803 4.9294 5.68803 5.06201V6.46801H4.28003C4.14742 6.46801 4.02024 6.52069 3.92648 6.61446C3.83271 6.70823 3.78003 6.8354 3.78003 6.96801V8.59301C3.78003 8.72562 3.83271 8.8528 3.92648 8.94657C4.02024 9.04033 4.14742 9.09301 4.28003 9.09301H5.68703V10.499C5.68703 10.6316 5.73971 10.7588 5.83348 10.8526C5.92724 10.9463 6.05442 10.999 6.18703 10.999H7.81203C7.87769 10.999 7.94271 10.9861 8.00337 10.961C8.06403 10.9358 8.11915 10.899 8.16558 10.8526C8.21201 10.8061 8.24884 10.751 8.27397 10.6904C8.2991 10.6297 8.31203 10.5647 8.31203 10.499V9.09301H9.71803C9.85064 9.09301 9.97781 9.04033 10.0716 8.94657C10.1654 8.8528 10.218 8.72562 10.218 8.59301V6.96801C10.218 6.8354 10.1654 6.70823 10.0716 6.61446C9.97781 6.52069 9.85064 6.46801 9.71803 6.46801H8.31303V5.06201C8.31303 4.9294 8.26035 4.80223 8.16658 4.70846C8.07281 4.61469 7.94564 4.56201 7.81303 4.56201H6.18803Z" stroke="black" stroke-linecap="round" stroke-linejoin="round"/>
</svg>
