<svg width="150" height="150" viewBox="0 0 150 150" fill="none" xmlns="http://www.w3.org/2000/svg">
<path d="M40.0001 75.1667H106.667M106.667 75.1667L77.5001 46M106.667 75.1667L77.5001 104.333" stroke="#169C00" stroke-width="6" stroke-linecap="round" stroke-linejoin="round"/>
<path d="M75 0C60.1664 0 45.6659 4.39867 33.3323 12.6398C20.9986 20.8809 11.3856 32.5943 5.70907 46.2987C0.0324951 60.0032 -1.45275 75.0832 1.44114 89.6318C4.33503 104.18 11.4781 117.544 21.967 128.033C32.456 138.522 45.8197 145.665 60.3682 148.559C74.9168 151.453 89.9968 149.968 103.701 144.291C117.406 138.614 129.119 129.001 137.36 116.668C145.601 104.334 150 89.8336 150 75C149.978 55.1155 142.069 36.0516 128.009 21.9911C113.948 7.93061 94.8845 0.021837 75 0ZM75 144C61.3531 144 48.0127 139.953 36.6657 132.371C25.3187 124.79 16.4748 114.013 11.2523 101.405C6.0299 88.797 4.66347 74.9234 7.32585 61.5388C9.98823 48.1541 16.5598 35.8594 26.2097 26.2096C35.8595 16.5598 48.1541 9.98819 61.5388 7.32581C74.9235 4.66343 88.7971 6.02986 101.405 11.2523C114.013 16.4748 124.79 25.3187 132.371 36.6656C139.953 48.0126 144 61.3531 144 75C143.98 93.2938 136.704 110.833 123.768 123.768C110.833 136.704 93.2939 143.98 75 144Z" fill="#169C00"/>
</svg>
