<svg width="53" height="62" viewBox="0 0 53 62" fill="none" xmlns="http://www.w3.org/2000/svg">
<path d="M20.4167 55.4167H32.0833C32.0833 58.625 29.4583 61.25 26.25 61.25C23.0417 61.25 20.4167 58.625 20.4167 55.4167ZM52.5 49.5833V52.5H0V49.5833L5.83333 43.75V26.25C5.83333 17.2083 11.6667 9.33333 20.4167 6.70833V5.83333C20.4167 2.625 23.0417 0 26.25 0C29.4583 0 32.0833 2.625 32.0833 5.83333V6.70833C40.8333 9.33333 46.6667 17.2083 46.6667 26.25V43.75L52.5 49.5833ZM40.8333 26.25C40.8333 18.0833 34.4167 11.6667 26.25 11.6667C18.0833 11.6667 11.6667 18.0833 11.6667 26.25V46.6667H40.8333V26.25Z" fill="black"/>
</svg>
