<svg width="46" height="46" viewBox="0 0 46 46" fill="none" xmlns="http://www.w3.org/2000/svg">
<path d="M28 45.5C27.337 45.5 26.7011 45.2366 26.2322 44.7678C25.7634 44.2989 25.5 43.663 25.5 43V23C25.5 22.337 25.7634 21.7011 26.2322 21.2322C26.7011 20.7634 27.337 20.5 28 20.5H43C43.663 20.5 44.2989 20.7634 44.7678 21.2322C45.2366 21.7011 45.5 22.337 45.5 23V43C45.5 43.663 45.2366 44.2989 44.7678 44.7678C44.2989 45.2366 43.663 45.5 43 45.5H28ZM3 25.5C2.33696 25.5 1.70107 25.2366 1.23223 24.7678C0.763392 24.2989 0.5 23.663 0.5 23V3C0.5 2.33696 0.763392 1.70107 1.23223 1.23223C1.70107 0.763392 2.33696 0.5 3 0.5H18C18.663 0.5 19.2989 0.763392 19.7678 1.23223C20.2366 1.70107 20.5 2.33696 20.5 3V23C20.5 23.663 20.2366 24.2989 19.7678 24.7678C19.2989 25.2366 18.663 25.5 18 25.5H3ZM15.5 20.5V5.5H5.5V20.5H15.5ZM3 45.5C2.33696 45.5 1.70107 45.2366 1.23223 44.7678C0.763392 44.2989 0.5 43.663 0.5 43V33C0.5 32.337 0.763392 31.7011 1.23223 31.2322C1.70107 30.7634 2.33696 30.5 3 30.5H18C18.663 30.5 19.2989 30.7634 19.7678 31.2322C20.2366 31.7011 20.5 32.337 20.5 33V43C20.5 43.663 20.2366 44.2989 19.7678 44.7678C19.2989 45.2366 18.663 45.5 18 45.5H3ZM5.5 40.5H15.5V35.5H5.5V40.5ZM30.5 40.5H40.5V25.5H30.5V40.5ZM25.5 3C25.5 2.33696 25.7634 1.70107 26.2322 1.23223C26.7011 0.763392 27.337 0.5 28 0.5H43C43.663 0.5 44.2989 0.763392 44.7678 1.23223C45.2366 1.70107 45.5 2.33696 45.5 3V13C45.5 13.663 45.2366 14.2989 44.7678 14.7678C44.2989 15.2366 43.663 15.5 43 15.5H28C27.337 15.5 26.7011 15.2366 26.2322 14.7678C25.7634 14.2989 25.5 13.663 25.5 13V3ZM30.5 5.5V10.5H40.5V5.5H30.5Z" fill="black"/>
</svg>
