<svg width="100" height="100" viewBox="0 0 100 100" fill="none" xmlns="http://www.w3.org/2000/svg">
<g filter="url(#filter0_d_13_62)">
<mask id="mask0_13_62" style="mask-type:alpha" maskUnits="userSpaceOnUse" x="0" y="0" width="100" height="100">
<rect width="100" height="100" fill="#D9D9D9"/>
</mask>
<g mask="url(#mask0_13_62)">
<path d="M50.0001 91.6667C43.4723 90.8334 37.639 89.1667 32.5001 86.6667C27.3612 84.1667 23.0036 80.9028 19.4272 76.875C15.8508 72.8472 13.1251 68.1771 11.2501 62.8646C9.37512 57.5521 8.43762 51.6667 8.43762 45.2083C16.0765 45.9722 22.5348 47.3611 27.8126 49.375C33.0904 51.3889 37.3786 54.2361 40.6772 57.9167C43.9758 61.5972 46.3543 66.1979 47.8126 71.7188C49.271 77.2396 50.0001 83.8889 50.0001 91.6667ZM50.0001 56.5625C48.4029 54.132 46.2328 51.7361 43.4897 49.375C40.7467 47.0139 37.5696 44.8611 33.9585 42.9167C34.3751 40 35.0696 36.9792 36.0418 33.8542C37.014 30.7292 38.1946 27.6563 39.5835 24.6354C40.9723 21.6146 42.5522 18.7153 44.323 15.9375C46.0939 13.1597 47.9862 10.625 50.0001 8.33334C52.014 10.625 53.9064 13.1597 55.6772 15.9375C57.448 18.7153 59.0279 21.6146 60.4168 24.6354C61.8057 27.6563 62.9862 30.7292 63.9585 33.8542C64.9307 36.9792 65.6251 40 66.0418 42.9167C62.4307 44.7917 59.2536 46.9097 56.5105 49.2708C53.7675 51.632 51.5973 54.0625 50.0001 56.5625ZM58.3335 90C58.1946 85.1389 57.83 80.6424 57.2397 76.5104C56.6494 72.3785 55.7293 68.4722 54.4793 64.7917C57.7432 59.1667 62.2397 54.5833 67.9689 51.0417C73.698 47.5 81.5626 45.5556 91.5626 45.2083C91.6321 56.1806 88.698 65.6424 82.7605 73.5938C76.823 81.5452 68.6807 87.0139 58.3335 90Z" fill="#1C1B1F"/>
</g>
</g>
<defs>
<filter id="filter0_d_13_62" x="4.43762" y="8.33334" width="91.1262" height="91.3333" filterUnits="userSpaceOnUse" color-interpolation-filters="sRGB">
<feFlood flood-opacity="0" result="BackgroundImageFix"/>
<feColorMatrix in="SourceAlpha" type="matrix" values="0 0 0 0 0 0 0 0 0 0 0 0 0 0 0 0 0 0 127 0" result="hardAlpha"/>
<feOffset dy="4"/>
<feGaussianBlur stdDeviation="2"/>
<feComposite in2="hardAlpha" operator="out"/>
<feColorMatrix type="matrix" values="0 0 0 0 0 0 0 0 0 0 0 0 0 0 0 0 0 0 0.25 0"/>
<feBlend mode="normal" in2="BackgroundImageFix" result="effect1_dropShadow_13_62"/>
<feBlend mode="normal" in="SourceGraphic" in2="effect1_dropShadow_13_62" result="shape"/>
</filter>
</defs>
</svg>
