<svg width="25" height="25" viewBox="0 0 25 25" fill="none" xmlns="http://www.w3.org/2000/svg">
<mask id="mask0_126_7" style="mask-type:alpha" maskUnits="userSpaceOnUse" x="0" y="0" width="25" height="25">
<rect x="0.501343" y="0.0675049" width="24" height="24" fill="#D9D9D9"/>
</mask>
<g mask="url(#mask0_126_7)">
<path d="M17.5013 22.0675C16.118 22.0675 14.9388 21.58 13.9638 20.605C12.9888 19.63 12.5013 18.4508 12.5013 17.0675C12.5013 15.6842 12.9888 14.505 13.9638 13.53C14.9388 12.555 16.118 12.0675 17.5013 12.0675C18.8847 12.0675 20.0638 12.555 21.0388 13.53C22.0138 14.505 22.5013 15.6842 22.5013 17.0675C22.5013 18.4508 22.0138 19.63 21.0388 20.605C20.0638 21.58 18.8847 22.0675 17.5013 22.0675ZM19.1763 19.4425L19.8763 18.7425L18.0013 16.8675V14.0675H17.0013V17.2675L19.1763 19.4425ZM5.50134 21.0675C4.95134 21.0675 4.48051 20.8717 4.08884 20.48C3.69718 20.0883 3.50134 19.6175 3.50134 19.0675V5.0675C3.50134 4.5175 3.69718 4.04667 4.08884 3.655C4.48051 3.26334 4.95134 3.0675 5.50134 3.0675H9.67634C9.85968 2.48417 10.218 2.005 10.7513 1.63C11.2847 1.255 11.868 1.0675 12.5013 1.0675C13.168 1.0675 13.7638 1.255 14.2888 1.63C14.8138 2.005 15.168 2.48417 15.3513 3.0675H19.5013C20.0513 3.0675 20.5222 3.26334 20.9138 3.655C21.3055 4.04667 21.5013 4.5175 21.5013 5.0675V11.3175C21.2013 11.1008 20.8847 10.9175 20.5513 10.7675C20.218 10.6175 19.868 10.4842 19.5013 10.3675V5.0675H17.5013V8.0675H7.50134V5.0675H5.50134V19.0675H10.8013C10.918 19.4342 11.0513 19.7842 11.2013 20.1175C11.3513 20.4508 11.5347 20.7675 11.7513 21.0675H5.50134ZM12.5013 5.0675C12.7847 5.0675 13.0222 4.97167 13.2138 4.78C13.4055 4.58834 13.5013 4.35084 13.5013 4.0675C13.5013 3.78417 13.4055 3.54667 13.2138 3.35501C13.0222 3.16334 12.7847 3.0675 12.5013 3.0675C12.218 3.0675 11.9805 3.16334 11.7888 3.35501C11.5972 3.54667 11.5013 3.78417 11.5013 4.0675C11.5013 4.35084 11.5972 4.58834 11.7888 4.78C11.9805 4.97167 12.218 5.0675 12.5013 5.0675Z" fill="#1C1B1F"/>
</g>
</svg>
