<svg width="70" height="70" viewBox="0 0 70 70" fill="none" xmlns="http://www.w3.org/2000/svg">
<path fill-rule="evenodd" clip-rule="evenodd" d="M35 0C54.3305 0 70 15.6695 70 35C70.0123 43.0776 67.2188 50.9088 62.097 57.155L62.167 57.232L61.705 57.624C58.4228 61.5063 54.3325 64.6252 49.72 66.7628C45.1074 68.9004 40.0838 70.0052 35 70C24.675 70 15.4 65.5305 8.99503 58.4255L8.29503 57.6205L7.83303 57.2355L7.90303 57.1515C2.78169 50.9064 -0.011786 43.0765 3.7378e-05 35C3.7378e-05 15.6695 15.6695 0 35 0ZM35 52.5C28.49 52.5 22.6065 54.572 18.2245 57.421C23.063 61.0514 28.951 63.0096 35 63C41.049 63.0096 46.937 61.0514 51.7755 57.421C46.7683 54.2124 40.947 52.5048 35 52.5ZM35 7C29.7308 6.99985 24.5686 8.4865 20.1065 11.2891C15.6445 14.0916 12.0638 18.0964 9.77609 22.843C7.48833 27.5896 6.58634 32.8854 7.17381 38.1217C7.76127 43.358 9.81434 48.3223 13.097 52.444C18.7705 48.3735 26.5125 45.5 35 45.5C43.4875 45.5 51.2295 48.3735 56.903 52.444C60.1857 48.3223 62.2387 43.358 62.8262 38.1217C63.4137 32.8854 62.5117 27.5896 60.2239 22.843C57.9362 18.0964 54.3555 14.0916 49.8935 11.2891C45.4314 8.4865 40.2692 6.99985 35 7ZM35 14C38.713 14 42.274 15.475 44.8995 18.1005C47.525 20.726 49 24.287 49 28C49 31.713 47.525 35.274 44.8995 37.8995C42.274 40.525 38.713 42 35 42C31.287 42 27.726 40.525 25.1005 37.8995C22.475 35.274 21 31.713 21 28C21 24.287 22.475 20.726 25.1005 18.1005C27.726 15.475 31.287 14 35 14ZM35 21C33.1435 21 31.363 21.7375 30.0503 23.0502C28.7375 24.363 28 26.1435 28 28C28 29.8565 28.7375 31.637 30.0503 32.9497C31.363 34.2625 33.1435 35 35 35C36.8565 35 38.637 34.2625 39.9497 32.9497C41.2625 31.637 42 29.8565 42 28C42 26.1435 41.2625 24.363 39.9497 23.0502C38.637 21.7375 36.8565 21 35 21Z" fill="black"/>
</svg>
