<svg width="150" height="150" viewBox="0 0 150 150" fill="none" xmlns="http://www.w3.org/2000/svg">
<rect width="150" height="150" rx="75" fill="#DCE8E2"/>
<g filter="url(#filter0_d_13_64)">
<mask id="mask0_13_64" style="mask-type:alpha" maskUnits="userSpaceOnUse" x="25" y="25" width="100" height="100">
<rect x="25" y="25" width="100" height="100" fill="#D9D9D9"/>
</mask>
<g mask="url(#mask0_13_64)">
<path d="M75.0001 116.667C68.4723 115.833 62.639 114.167 57.5001 111.667C52.3612 109.167 48.0036 105.903 44.4272 101.875C40.8508 97.8472 38.1251 93.1771 36.2501 87.8646C34.3751 82.5521 33.4376 76.6667 33.4376 70.2083C41.0765 70.9722 47.5348 72.3611 52.8126 74.375C58.0904 76.3889 62.3786 79.2361 65.6772 82.9167C68.9758 86.5972 71.3543 91.1979 72.8126 96.7188C74.271 102.24 75.0001 108.889 75.0001 116.667ZM75.0001 81.5625C73.4029 79.132 71.2328 76.7361 68.4897 74.375C65.7467 72.0139 62.5696 69.8611 58.9585 67.9167C59.3751 65 60.0696 61.9792 61.0418 58.8542C62.014 55.7292 63.1946 52.6563 64.5835 49.6354C65.9723 46.6146 67.5522 43.7153 69.323 40.9375C71.0939 38.1597 72.9862 35.625 75.0001 33.3333C77.014 35.625 78.9064 38.1597 80.6772 40.9375C82.448 43.7153 84.0279 46.6146 85.4168 49.6354C86.8057 52.6563 87.9862 55.7292 88.9585 58.8542C89.9307 61.9792 90.6251 65 91.0418 67.9167C87.4307 69.7917 84.2536 71.9097 81.5105 74.2708C78.7675 76.632 76.5973 79.0625 75.0001 81.5625ZM83.3335 115C83.1946 110.139 82.83 105.642 82.2397 101.51C81.6494 97.3785 80.7293 93.4722 79.4793 89.7917C82.7432 84.1667 87.2397 79.5833 92.9689 76.0417C98.698 72.5 106.563 70.5556 116.563 70.2083C116.632 81.1806 113.698 90.6424 107.761 98.5938C101.823 106.545 93.6807 112.014 83.3335 115Z" fill="#07856F"/>
</g>
</g>
<defs>
<filter id="filter0_d_13_64" x="29.4376" y="33.3333" width="91.1262" height="91.3333" filterUnits="userSpaceOnUse" color-interpolation-filters="sRGB">
<feFlood flood-opacity="0" result="BackgroundImageFix"/>
<feColorMatrix in="SourceAlpha" type="matrix" values="0 0 0 0 0 0 0 0 0 0 0 0 0 0 0 0 0 0 127 0" result="hardAlpha"/>
<feOffset dy="4"/>
<feGaussianBlur stdDeviation="2"/>
<feComposite in2="hardAlpha" operator="out"/>
<feColorMatrix type="matrix" values="0 0 0 0 0 0 0 0 0 0 0 0 0 0 0 0 0 0 0.25 0"/>
<feBlend mode="normal" in2="BackgroundImageFix" result="effect1_dropShadow_13_64"/>
<feBlend mode="normal" in="SourceGraphic" in2="effect1_dropShadow_13_64" result="shape"/>
</filter>
</defs>
</svg>
